<?xml version="1.0" standalone="no"?>
<!DOCTYPE svg PUBLIC "-//W3C//DTD SVG 20010904//EN"
 "http://www.w3.org/TR/2001/REC-SVG-20010904/DTD/svg10.dtd">
<svg version="1.0" xmlns="http://www.w3.org/2000/svg"
 width="958.000000pt" height="958.000000pt" viewBox="0 0 958.000000 958.000000"
 preserveAspectRatio="xMidYMid meet">
<metadata>
Created by potrace 1.14, written by Peter Selinger 2001-2017
</metadata>
<g transform="translate(0.000000,958.000000) scale(0.100000,-0.100000)"
fill="#000000" stroke="none">
<path d="M1640 6617 l0 -75 343 -5 c387 -6 436 -13 613 -86 248 -104 465 -313
575 -556 121 -268 129 -656 19 -931 -113 -282 -335 -503 -618 -613 -171 -67
-281 -80 -664 -81 l-268 0 0 -76 0 -76 358 5 c388 5 428 9 602 72 284 103 534
320 673 584 53 100 88 192 117 311 31 125 39 396 15 545 -71 452 -378 825
-805 980 -174 63 -214 67 -602 72 l-358 5 0 -75z"/>
<path d="M6230 5340 l0 -1210 65 0 65 0 0 621 0 621 24 -19 c13 -10 329 -289
702 -620 l678 -603 109 0 108 0 -93 81 c-51 45 -124 110 -163 144 -131 115
-510 449 -780 685 -148 129 -293 258 -323 286 l-55 50 339 281 c747 620 953
790 1012 838 l62 50 -106 3 -105 3 -292 -244 c-399 -333 -772 -645 -955 -799
-83 -70 -154 -128 -157 -128 -3 0 -5 263 -5 585 l0 585 -65 0 -65 0 0 -1210z"/>
<path d="M4400 6143 c-107 -219 -270 -553 -363 -743 -93 -190 -200 -408 -237
-485 -37 -77 -136 -279 -219 -449 -83 -169 -151 -312 -151 -317 0 -5 28 -9 63
-8 l62 0 65 134 c36 73 126 257 200 407 l135 273 538 3 537 2 0 50 0 50 -510
0 -510 0 14 33 c33 78 570 1157 575 1157 4 0 240 -475 526 -1055 l520 -1055
73 0 72 0 -38 78 c-21 42 -288 582 -592 1200 -305 617 -557 1122 -560 1122 -4
0 -93 -179 -200 -397z"/>
<path d="M4537 3593 c-4 -3 -7 -30 -7 -60 l0 -53 -39 0 c-29 0 -40 -4 -44 -19
-8 -31 11 -51 48 -51 l35 0 0 -197 c0 -169 3 -203 18 -233 19 -39 39 -47 66
-27 18 14 19 16 3 56 -14 33 -17 77 -17 221 l0 179 53 3 c50 3 52 4 52 33 0
29 -2 30 -52 33 l-53 3 0 60 c0 58 0 59 -28 59 -16 0 -32 -3 -35 -7z"/>
<path d="M2931 3472 c-53 -26 -76 -65 -76 -125 1 -109 10 -119 166 -162 52
-15 102 -34 112 -42 25 -23 23 -94 -3 -118 -37 -33 -171 -32 -205 1 -8 9 -15
33 -15 54 0 40 -14 51 -54 42 -16 -4 -18 -12 -14 -58 8 -91 57 -124 186 -124
89 0 158 27 179 70 15 31 17 106 3 147 -14 38 -46 56 -155 83 -49 13 -98 30
-108 39 -25 24 -28 109 -3 127 28 20 97 27 143 15 42 -11 63 -40 63 -86 0 -26
26 -40 55 -29 15 6 16 15 11 57 -7 60 -41 102 -95 117 -57 16 -152 12 -190 -8z"/>
<path d="M4036 3480 c-80 -24 -111 -109 -79 -223 6 -24 47 -43 154 -72 50 -13
100 -32 110 -41 27 -24 26 -95 -1 -119 -37 -33 -171 -32 -205 1 -8 9 -15 33
-15 55 0 38 -1 39 -36 39 l-36 0 4 -55 c8 -91 58 -125 187 -125 132 1 191 42
191 136 0 107 -18 125 -165 164 -114 31 -125 40 -125 100 0 30 6 54 15 64 22
21 94 30 144 16 44 -11 61 -36 61 -85 0 -26 26 -40 55 -29 15 6 16 15 11 57
-7 60 -41 102 -95 117 -43 12 -135 12 -175 0z"/>
<path d="M4938 3480 c-44 -13 -86 -42 -97 -67 -7 -14 -11 -96 -11 -206 0 -207
3 -216 74 -248 46 -21 157 -25 218 -9 53 15 88 61 88 116 0 45 0 45 -32 42
-24 -2 -34 -9 -36 -23 -8 -56 -13 -64 -48 -75 -50 -17 -148 -8 -174 15 -16 15
-20 30 -20 82 0 34 3 63 8 63 4 1 57 7 119 14 161 19 183 38 183 161 0 76 -25
114 -88 133 -44 13 -143 14 -184 2z m178 -75 c22 -14 25 -22 22 -73 -4 -71
-16 -78 -146 -88 l-92 -7 0 75 c0 81 6 92 57 108 39 13 130 4 159 -15z"/>
<path d="M5485 3475 c-22 -8 -50 -26 -62 -40 -22 -25 -23 -32 -23 -256 l0
-230 33 3 32 3 3 214 c3 244 3 245 79 257 54 8 119 -9 133 -36 6 -11 10 -106
10 -229 l0 -211 35 0 35 0 0 220 0 220 27 17 c39 26 144 25 172 -1 20 -18 21
-29 21 -238 l0 -218 35 0 35 0 0 220 c0 242 -3 258 -58 292 -53 32 -167 37
-224 9 l-44 -21 -39 20 c-47 24 -140 26 -200 5z"/>
<path d="M6331 3476 c-42 -15 -81 -59 -82 -94 -5 -90 10 -140 50 -161 10 -6
60 -21 110 -35 112 -30 131 -44 131 -102 0 -34 -5 -47 -26 -63 -43 -34 -182
-26 -206 12 -4 7 -8 29 -8 50 0 36 -1 37 -35 37 -33 0 -35 -2 -35 -35 0 -100
59 -145 187 -145 62 0 88 5 123 23 58 29 72 56 67 135 -4 83 -24 103 -141 136
-48 15 -94 26 -101 26 -40 0 -64 110 -30 143 34 35 150 32 186 -4 11 -11 19
-33 19 -53 0 -37 21 -53 55 -40 14 6 16 16 13 56 -6 58 -43 103 -97 118 -48
13 -138 11 -180 -4z"/>
<path d="M3400 3469 l-25 -9 3 -207 c3 -145 8 -217 17 -240 20 -47 77 -73 165
-73 l70 0 0 -44 c0 -71 -30 -99 -113 -104 -57 -4 -66 -7 -76 -29 -6 -13 -11
-26 -11 -28 0 -3 34 -5 75 -5 92 0 138 17 160 60 22 43 44 299 45 518 l0 173
-22 -6 c-13 -4 -26 -10 -30 -14 -9 -9 -16 -115 -17 -264 l-1 -129 -34 -34
c-44 -44 -100 -48 -137 -8 -24 25 -24 29 -27 240 -2 118 -6 214 -10 213 -4 0
-18 -5 -32 -10z"/>
</g>
</svg>
